{
	"asset":{
		"version":"2.0",
		"generator":"Created using the official Cinema 4D glTF Exporter 1.000x290161"
	},
	"accessors":[{
		"bufferView":0,
		"type":"SCALAR",
		"componentType":5123,
		"count":132,
		"byteOffset":0,
		"min":[0],
		"max":[67]
	},
	{
		"bufferView":1,
		"type":"VEC3",
		"componentType":5126,
		"count":68,
		"byteOffset":0,
		"min":[-197.789,
		-78.317,
		-100],
		"max":[402.898,
		-27.81,
		100]
	},
	{
		"bufferView":1,
		"type":"VEC2",
		"componentType":5126,
		"count":68,
		"byteOffset":12,
		"min":[0.009,
		0.009],
		"max":[0.991,
		0.991]
	},
	{
		"bufferView":2,
		"type":"SCALAR",
		"componentType":5123,
		"count":426,
		"byteOffset":0,
		"min":[0],
		"max":[152]
	},
	{
		"bufferView":3,
		"type":"VEC3",
		"componentType":5126,
		"count":153,
		"byteOffset":0,
		"min":[-70,
		-10,
		-70],
		"max":[70,
		11.247,
		70]
	},
	{
		"bufferView":3,
		"type":"VEC2",
		"componentType":5126,
		"count":153,
		"byteOffset":12,
		"min":[0.009,
		0.008],
		"max":[0.991,
		0.992]
	},
	{
		"bufferView":4,
		"type":"SCALAR",
		"componentType":5123,
		"count":426,
		"byteOffset":0,
		"min":[0],
		"max":[152]
	},
	{
		"bufferView":5,
		"type":"VEC3",
		"componentType":5126,
		"count":153,
		"byteOffset":0,
		"min":[-73.217,
		-10,
		-70],
		"max":[66.783,
		11.32,
		70]
	},
	{
		"bufferView":5,
		"type":"VEC2",
		"componentType":5126,
		"count":153,
		"byteOffset":12,
		"min":[0.008,
		0.011],
		"max":[0.992,
		0.989]
	},
	{
		"bufferView":6,
		"type":"SCALAR",
		"componentType":5123,
		"count":276,
		"byteOffset":0,
		"min":[0],
		"max":[95]
	},
	{
		"bufferView":7,
		"type":"VEC3",
		"componentType":5126,
		"count":96,
		"byteOffset":0,
		"min":[-20.42,
		-25.75,
		-20.42],
		"max":[20.42,
		-11.798,
		20.42]
	},
	{
		"bufferView":7,
		"type":"VEC2",
		"componentType":5126,
		"count":96,
		"byteOffset":12,
		"min":[0.009,
		0.009],
		"max":[0.991,
		0.991]
	},
	{
		"bufferView":8,
		"type":"SCALAR",
		"componentType":5123,
		"count":276,
		"byteOffset":0,
		"min":[0],
		"max":[95]
	},
	{
		"bufferView":9,
		"type":"VEC3",
		"componentType":5126,
		"count":96,
		"byteOffset":0,
		"min":[-20.42,
		-25.75,
		-20.42],
		"max":[20.42,
		-11.798,
		20.42]
	},
	{
		"bufferView":9,
		"type":"VEC2",
		"componentType":5126,
		"count":96,
		"byteOffset":12,
		"min":[0.009,
		0.009],
		"max":[0.991,
		0.991]
	},
	{
		"bufferView":10,
		"type":"SCALAR",
		"componentType":5123,
		"count":276,
		"byteOffset":0,
		"min":[0],
		"max":[95]
	},
	{
		"bufferView":11,
		"type":"VEC3",
		"componentType":5126,
		"count":96,
		"byteOffset":0,
		"min":[-20.42,
		-25.75,
		-20.42],
		"max":[20.42,
		-11.798,
		20.42]
	},
	{
		"bufferView":11,
		"type":"VEC2",
		"componentType":5126,
		"count":96,
		"byteOffset":12,
		"min":[0.009,
		0.009],
		"max":[0.991,
		0.991]
	},
	{
		"bufferView":12,
		"type":"SCALAR",
		"componentType":5123,
		"count":276,
		"byteOffset":0,
		"min":[0],
		"max":[95]
	},
	{
		"bufferView":13,
		"type":"VEC3",
		"componentType":5126,
		"count":96,
		"byteOffset":0,
		"min":[-20.42,
		-25.75,
		-20.42],
		"max":[20.42,
		-11.798,
		20.42]
	},
	{
		"bufferView":13,
		"type":"VEC2",
		"componentType":5126,
		"count":96,
		"byteOffset":12,
		"min":[0.009,
		0.009],
		"max":[0.991,
		0.991]
	},
	{
		"bufferView":14,
		"type":"SCALAR",
		"componentType":5123,
		"count":276,
		"byteOffset":0,
		"min":[0],
		"max":[95]
	},
	{
		"bufferView":15,
		"type":"VEC3",
		"componentType":5126,
		"count":96,
		"byteOffset":0,
		"min":[-20.42,
		-25.75,
		-20.42],
		"max":[20.42,
		-11.798,
		20.42]
	},
	{
		"bufferView":15,
		"type":"VEC2",
		"componentType":5126,
		"count":96,
		"byteOffset":12,
		"min":[0.009,
		0.009],
		"max":[0.991,
		0.991]
	},
	{
		"bufferView":16,
		"type":"SCALAR",
		"componentType":5123,
		"count":276,
		"byteOffset":0,
		"min":[0],
		"max":[95]
	},
	{
		"bufferView":17,
		"type":"VEC3",
		"componentType":5126,
		"count":96,
		"byteOffset":0,
		"min":[-20.42,
		-25.75,
		-20.42],
		"max":[20.42,
		-11.798,
		20.42]
	},
	{
		"bufferView":17,
		"type":"VEC2",
		"componentType":5126,
		"count":96,
		"byteOffset":12,
		"min":[0.009,
		0.009],
		"max":[0.991,
		0.991]
	},
	{
		"bufferView":18,
		"type":"SCALAR",
		"componentType":5123,
		"count":276,
		"byteOffset":0,
		"min":[0],
		"max":[95]
	},
	{
		"bufferView":19,
		"type":"VEC3",
		"componentType":5126,
		"count":96,
		"byteOffset":0,
		"min":[-20.42,
		-25.75,
		-20.42],
		"max":[20.42,
		-11.798,
		20.42]
	},
	{
		"bufferView":19,
		"type":"VEC2",
		"componentType":5126,
		"count":96,
		"byteOffset":12,
		"min":[0.009,
		0.009],
		"max":[0.991,
		0.991]
	},
	{
		"bufferView":20,
		"type":"SCALAR",
		"componentType":5123,
		"count":276,
		"byteOffset":0,
		"min":[0],
		"max":[95]
	},
	{
		"bufferView":21,
		"type":"VEC3",
		"componentType":5126,
		"count":96,
		"byteOffset":0,
		"min":[-20.42,
		-25.75,
		-20.42],
		"max":[20.42,
		-11.798,
		20.42]
	},
	{
		"bufferView":21,
		"type":"VEC2",
		"componentType":5126,
		"count":96,
		"byteOffset":12,
		"min":[0.009,
		0.009],
		"max":[0.991,
		0.991]
	},
	{
		"bufferView":22,
		"type":"SCALAR",
		"componentType":5123,
		"count":276,
		"byteOffset":0,
		"min":[0],
		"max":[95]
	},
	{
		"bufferView":23,
		"type":"VEC3",
		"componentType":5126,
		"count":96,
		"byteOffset":0,
		"min":[-20.42,
		-25.75,
		-20.42],
		"max":[20.42,
		-11.798,
		20.42]
	},
	{
		"bufferView":23,
		"type":"VEC2",
		"componentType":5126,
		"count":96,
		"byteOffset":12,
		"min":[0.009,
		0.009],
		"max":[0.991,
		0.991]
	},
	{
		"bufferView":24,
		"type":"SCALAR",
		"componentType":5123,
		"count":276,
		"byteOffset":0,
		"min":[0],
		"max":[95]
	},
	{
		"bufferView":25,
		"type":"VEC3",
		"componentType":5126,
		"count":96,
		"byteOffset":0,
		"min":[-20.42,
		-25.75,
		-20.42],
		"max":[20.42,
		-11.798,
		20.42]
	},
	{
		"bufferView":25,
		"type":"VEC2",
		"componentType":5126,
		"count":96,
		"byteOffset":12,
		"min":[0.009,
		0.009],
		"max":[0.991,
		0.991]
	},
	{
		"bufferView":26,
		"type":"SCALAR",
		"componentType":5123,
		"count":276,
		"byteOffset":0,
		"min":[0],
		"max":[95]
	},
	{
		"bufferView":27,
		"type":"VEC3",
		"componentType":5126,
		"count":96,
		"byteOffset":0,
		"min":[-20.42,
		-25.75,
		-20.42],
		"max":[20.42,
		-11.798,
		20.42]
	},
	{
		"bufferView":27,
		"type":"VEC2",
		"componentType":5126,
		"count":96,
		"byteOffset":12,
		"min":[0.009,
		0.009],
		"max":[0.991,
		0.991]
	},
	{
		"bufferView":28,
		"type":"SCALAR",
		"componentType":5123,
		"count":276,
		"byteOffset":0,
		"min":[0],
		"max":[95]
	},
	{
		"bufferView":29,
		"type":"VEC3",
		"componentType":5126,
		"count":96,
		"byteOffset":0,
		"min":[-20.42,
		-25.75,
		-20.42],
		"max":[20.42,
		-11.798,
		20.42]
	},
	{
		"bufferView":29,
		"type":"VEC2",
		"componentType":5126,
		"count":96,
		"byteOffset":12,
		"min":[0.009,
		0.009],
		"max":[0.991,
		0.991]
	},
	{
		"bufferView":30,
		"type":"SCALAR",
		"componentType":5123,
		"count":276,
		"byteOffset":0,
		"min":[0],
		"max":[95]
	},
	{
		"bufferView":31,
		"type":"VEC3",
		"componentType":5126,
		"count":96,
		"byteOffset":0,
		"min":[-20.42,
		-25.75,
		-15.063],
		"max":[41.467,
		-11.798,
		1.729]
	},
	{
		"bufferView":31,
		"type":"VEC2",
		"componentType":5126,
		"count":96,
		"byteOffset":12,
		"min":[0.008,
		0.01],
		"max":[0.992,
		0.99]
	}],
	"scenes":[{
		"nodes":[0,
		1,
		2,
		3,
		4,
		5,
		6,
		7,
		8,
		9,
		10,
		11,
		12,
		13,
		14,
		15]
	}],
	"nodes":[{
		"name":"Cube.27",
		"translation":[-103.261,
		76.302,
		0],
		"rotation":[0,
		0,
		0,
		-1],
		"scale":[1,
		1,
		1],
		"mesh":0
	},
	{
		"name":"Cylinder.3",
		"translation":[-98.71,
		36.986,
		9.846],
		"rotation":[-0.046,
		0,
		0,
		-0.999],
		"scale":[1,
		1,
		1],
		"mesh":1
	},
	{
		"name":"Cylinder.2",
		"translation":[104.082,
		36.986,
		9.846],
		"rotation":[-0.046,
		0,
		0,
		-0.999],
		"scale":[1,
		1,
		1],
		"mesh":2
	},
	{
		"name":"Cube.26",
		"translation":[-202.79,
		61.884,
		-50.632],
		"rotation":[-0.063,
		0,
		0,
		-0.998],
		"scale":[1,
		1,
		1],
		"mesh":3
	},
	{
		"name":"Cube.25",
		"translation":[-256.442,
		61.884,
		-50.632],
		"rotation":[-0.063,
		0,
		0,
		-0.998],
		"scale":[1,
		1,
		1],
		"mesh":4
	},
	{
		"name":"Cube.24",
		"translation":[-256.442,
		54.878,
		4.824],
		"rotation":[-0.063,
		0,
		0,
		-0.998],
		"scale":[1,
		1,
		1],
		"mesh":5
	},
	{
		"name":"Cube.23",
		"translation":[-202.79,
		54.878,
		4.824],
		"rotation":[-0.063,
		0,
		0,
		-0.998],
		"scale":[1,
		1,
		1],
		"mesh":6
	},
	{
		"name":"Cube.22",
		"translation":[-202.79,
		47.836,
		60.567],
		"rotation":[-0.063,
		0,
		0,
		-0.998],
		"scale":[1,
		1,
		1],
		"mesh":7
	},
	{
		"name":"Cube.21",
		"translation":[-256.442,
		47.836,
		60.567],
		"rotation":[-0.063,
		0,
		0,
		-0.998],
		"scale":[1,
		1,
		1],
		"mesh":8
	},
	{
		"name":"Cube.20",
		"translation":[202.805,
		47.836,
		60.567],
		"rotation":[-0.063,
		0,
		0,
		-0.998],
		"scale":[1,
		1,
		1],
		"mesh":9
	},
	{
		"name":"Cube.19",
		"translation":[256.457,
		47.836,
		60.567],
		"rotation":[-0.063,
		0,
		0,
		-0.998],
		"scale":[1,
		1,
		1],
		"mesh":10
	},
	{
		"name":"Cube.18",
		"translation":[256.457,
		54.878,
		4.824],
		"rotation":[-0.063,
		0,
		0,
		-0.998],
		"scale":[1,
		1,
		1],
		"mesh":11
	},
	{
		"name":"Cube.17",
		"translation":[202.805,
		54.878,
		4.824],
		"rotation":[-0.063,
		0,
		0,
		-0.998],
		"scale":[1,
		1,
		1],
		"mesh":12
	},
	{
		"name":"Cube.16",
		"translation":[202.805,
		61.884,
		-50.632],
		"rotation":[-0.063,
		0,
		0,
		-0.998],
		"scale":[1,
		1,
		1],
		"mesh":13
	},
	{
		"name":"Cube.15",
		"translation":[256.457,
		61.884,
		-50.632],
		"rotation":[-0.063,
		0,
		0,
		-0.998],
		"scale":[1,
		1,
		1],
		"mesh":14
	},
	{
		"name":"Cube.7",
		"translation":[-111.554,
		63.636,
		-62.403],
		"rotation":[-0.063,
		0,
		0,
		-0.998],
		"scale":[1,
		1,
		1],
		"mesh":15
	}],
	"meshes":[{
		"primitives":[{
			"attributes":{
				"POSITION":1,
				"TEXCOORD_0":2
			},
			"indices":0,
			"material":0
		}]
	},
	{
		"primitives":[{
			"attributes":{
				"POSITION":4,
				"TEXCOORD_0":5
			},
			"indices":3,
			"material":1
		}]
	},
	{
		"primitives":[{
			"attributes":{
				"POSITION":7,
				"TEXCOORD_0":8
			},
			"indices":6,
			"material":2
		}]
	},
	{
		"primitives":[{
			"attributes":{
				"POSITION":10,
				"TEXCOORD_0":11
			},
			"indices":9,
			"material":3
		}]
	},
	{
		"primitives":[{
			"attributes":{
				"POSITION":13,
				"TEXCOORD_0":14
			},
			"indices":12,
			"material":4
		}]
	},
	{
		"primitives":[{
			"attributes":{
				"POSITION":16,
				"TEXCOORD_0":17
			},
			"indices":15,
			"material":5
		}]
	},
	{
		"primitives":[{
			"attributes":{
				"POSITION":19,
				"TEXCOORD_0":20
			},
			"indices":18,
			"material":6
		}]
	},
	{
		"primitives":[{
			"attributes":{
				"POSITION":22,
				"TEXCOORD_0":23
			},
			"indices":21,
			"material":7
		}]
	},
	{
		"primitives":[{
			"attributes":{
				"POSITION":25,
				"TEXCOORD_0":26
			},
			"indices":24,
			"material":8
		}]
	},
	{
		"primitives":[{
			"attributes":{
				"POSITION":28,
				"TEXCOORD_0":29
			},
			"indices":27,
			"material":9
		}]
	},
	{
		"primitives":[{
			"attributes":{
				"POSITION":31,
				"TEXCOORD_0":32
			},
			"indices":30,
			"material":10
		}]
	},
	{
		"primitives":[{
			"attributes":{
				"POSITION":34,
				"TEXCOORD_0":35
			},
			"indices":33,
			"material":11
		}]
	},
	{
		"primitives":[{
			"attributes":{
				"POSITION":37,
				"TEXCOORD_0":38
			},
			"indices":36,
			"material":12
		}]
	},
	{
		"primitives":[{
			"attributes":{
				"POSITION":40,
				"TEXCOORD_0":41
			},
			"indices":39,
			"material":13
		}]
	},
	{
		"primitives":[{
			"attributes":{
				"POSITION":43,
				"TEXCOORD_0":44
			},
			"indices":42,
			"material":14
		}]
	},
	{
		"primitives":[{
			"attributes":{
				"POSITION":46,
				"TEXCOORD_0":47
			},
			"indices":45,
			"material":15
		}]
	}],
	"bufferViews":[{
		"buffer":0,
		"byteOffset":0,
		"byteLength":264,
		"target":34963
	},
	{
		"buffer":0,
		"byteOffset":264,
		"byteLength":1360,
		"target":34962,
		"byteStride":20
	},
	{
		"buffer":1,
		"byteOffset":0,
		"byteLength":852,
		"target":34963
	},
	{
		"buffer":1,
		"byteOffset":852,
		"byteLength":3060,
		"target":34962,
		"byteStride":20
	},
	{
		"buffer":2,
		"byteOffset":0,
		"byteLength":852,
		"target":34963
	},
	{
		"buffer":2,
		"byteOffset":852,
		"byteLength":3060,
		"target":34962,
		"byteStride":20
	},
	{
		"buffer":3,
		"byteOffset":0,
		"byteLength":552,
		"target":34963
	},
	{
		"buffer":3,
		"byteOffset":552,
		"byteLength":1920,
		"target":34962,
		"byteStride":20
	},
	{
		"buffer":4,
		"byteOffset":0,
		"byteLength":552,
		"target":34963
	},
	{
		"buffer":4,
		"byteOffset":552,
		"byteLength":1920,
		"target":34962,
		"byteStride":20
	},
	{
		"buffer":5,
		"byteOffset":0,
		"byteLength":552,
		"target":34963
	},
	{
		"buffer":5,
		"byteOffset":552,
		"byteLength":1920,
		"target":34962,
		"byteStride":20
	},
	{
		"buffer":6,
		"byteOffset":0,
		"byteLength":552,
		"target":34963
	},
	{
		"buffer":6,
		"byteOffset":552,
		"byteLength":1920,
		"target":34962,
		"byteStride":20
	},
	{
		"buffer":7,
		"byteOffset":0,
		"byteLength":552,
		"target":34963
	},
	{
		"buffer":7,
		"byteOffset":552,
		"byteLength":1920,
		"target":34962,
		"byteStride":20
	},
	{
		"buffer":8,
		"byteOffset":0,
		"byteLength":552,
		"target":34963
	},
	{
		"buffer":8,
		"byteOffset":552,
		"byteLength":1920,
		"target":34962,
		"byteStride":20
	},
	{
		"buffer":9,
		"byteOffset":0,
		"byteLength":552,
		"target":34963
	},
	{
		"buffer":9,
		"byteOffset":552,
		"byteLength":1920,
		"target":34962,
		"byteStride":20
	},
	{
		"buffer":10,
		"byteOffset":0,
		"byteLength":552,
		"target":34963
	},
	{
		"buffer":10,
		"byteOffset":552,
		"byteLength":1920,
		"target":34962,
		"byteStride":20
	},
	{
		"buffer":11,
		"byteOffset":0,
		"byteLength":552,
		"target":34963
	},
	{
		"buffer":11,
		"byteOffset":552,
		"byteLength":1920,
		"target":34962,
		"byteStride":20
	},
	{
		"buffer":12,
		"byteOffset":0,
		"byteLength":552,
		"target":34963
	},
	{
		"buffer":12,
		"byteOffset":552,
		"byteLength":1920,
		"target":34962,
		"byteStride":20
	},
	{
		"buffer":13,
		"byteOffset":0,
		"byteLength":552,
		"target":34963
	},
	{
		"buffer":13,
		"byteOffset":552,
		"byteLength":1920,
		"target":34962,
		"byteStride":20
	},
	{
		"buffer":14,
		"byteOffset":0,
		"byteLength":552,
		"target":34963
	},
	{
		"buffer":14,
		"byteOffset":552,
		"byteLength":1920,
		"target":34962,
		"byteStride":20
	},
	{
		"buffer":15,
		"byteOffset":0,
		"byteLength":552,
		"target":34963
	},
	{
		"buffer":15,
		"byteOffset":552,
		"byteLength":1920,
		"target":34962,
		"byteStride":20
	}],
	"buffers":[{
		"uri":"data:application/octet-stream;base64,",
		"byteLength":1624
	},
	{
		"uri":"data:application/octet-stream;base64,",
		"byteLength":3912
	},
	{
		"uri":"data:application/octet-stream;base64,",
		"byteLength":3912
	},
	{
		"uri":"data:application/octet-stream;base64,",
		"byteLength":2472
	},
	{
		"uri":"data:application/octet-stream;base64,",
		"byteLength":2472
	},
	{
		"uri":"data:application/octet-stream;base64,",
		"byteLength":2472
	},
	{
		"uri":"data:application/octet-stream;base64,",
		"byteLength":2472
	},
	{
		"uri":"data:application/octet-stream;base64,",
		"byteLength":2472
	},
	{
		"uri":"data:application/octet-stream;base64,",
		"byteLength":2472
	},
	{
		"uri":"data:application/octet-stream;base64,",
		"byteLength":2472
	},
	{
		"uri":"data:application/octet-stream;base64,",
		"byteLength":2472
	},
	{
		"uri":"data:application/octet-stream;base64,",
		"byteLength":2472
	},
	{
		"uri":"data:application/octet-stream;base64,",
		"byteLength":2472
	},
	{
		"uri":"data:application/octet-stream;base64,",
		"byteLength":2472
	},
	{
		"uri":"data:application/octet-stream;base64,",
		"byteLength":2472
	},
	{
		"uri":"data:application/octet-stream;base64,",
		"byteLength":2472
	}],
	"images":[{
		"uri":"data:image/jpeg;base64,"
	},
	{
		"uri":"data:image/jpeg;base64,"
	},
	{
		"uri":"data:image/jpeg;base64,"
	},
	{
		"uri":"data:image/jpeg;base64,"
	},
	{
		"uri":"data:image/jpeg;base64,"
	},
	{
		"uri":"data:image/jpeg;base64,"
	},
	{
		"uri":"data:image/jpeg;base64,"
	},
	{
		"uri":"data:image/jpeg;base64,"
	},
	{
		"uri":"data:image/jpeg;base64,"
	},
	{
		"uri":"data:image/jpeg;base64,"
	},
	{
		"uri":"data:image/jpeg;base64,"
	},
	{
		"uri":"data:image/jpeg;base64,"
	},
	{
		"uri":"data:image/jpeg;base64,"
	},
	{
		"uri":"data:image/jpeg;base64,"
	},
	{
		"uri":"data:image/jpeg;base64,"
	},
	{
		"uri":"data:image/jpeg;base64,"
	}],
	"samplers":[{
		"magFilter":9729,
		"minFilter":9729,
		"wrapS":10497,
		"wrapT":10497
	},
	{
		"magFilter":9729,
		"minFilter":9729,
		"wrapS":10497,
		"wrapT":10497
	},
	{
		"magFilter":9729,
		"minFilter":9729,
		"wrapS":10497,
		"wrapT":10497
	},
	{
		"magFilter":9729,
		"minFilter":9729,
		"wrapS":10497,
		"wrapT":10497
	},
	{
		"magFilter":9729,
		"minFilter":9729,
		"wrapS":10497,
		"wrapT":10497
	},
	{
		"magFilter":9729,
		"minFilter":9729,
		"wrapS":10497,
		"wrapT":10497
	},
	{
		"magFilter":9729,
		"minFilter":9729,
		"wrapS":10497,
		"wrapT":10497
	},
	{
		"magFilter":9729,
		"minFilter":9729,
		"wrapS":10497,
		"wrapT":10497
	},
	{
		"magFilter":9729,
		"minFilter":9729,
		"wrapS":10497,
		"wrapT":10497
	},
	{
		"magFilter":9729,
		"minFilter":9729,
		"wrapS":10497,
		"wrapT":10497
	},
	{
		"magFilter":9729,
		"minFilter":9729,
		"wrapS":10497,
		"wrapT":10497
	},
	{
		"magFilter":9729,
		"minFilter":9729,
		"wrapS":10497,
		"wrapT":10497
	},
	{
		"magFilter":9729,
		"minFilter":9729,
		"wrapS":10497,
		"wrapT":10497
	},
	{
		"magFilter":9729,
		"minFilter":9729,
		"wrapS":10497,
		"wrapT":10497
	},
	{
		"magFilter":9729,
		"minFilter":9729,
		"wrapS":10497,
		"wrapT":10497
	},
	{
		"magFilter":9729,
		"minFilter":9729,
		"wrapS":10497,
		"wrapT":10497
	}],
	"textures":[{
		"sampler":0,
		"source":0
	},
	{
		"sampler":1,
		"source":1
	},
	{
		"sampler":2,
		"source":2
	},
	{
		"sampler":3,
		"source":3
	},
	{
		"sampler":4,
		"source":4
	},
	{
		"sampler":5,
		"source":5
	},
	{
		"sampler":6,
		"source":6
	},
	{
		"sampler":7,
		"source":7
	},
	{
		"sampler":8,
		"source":8
	},
	{
		"sampler":9,
		"source":9
	},
	{
		"sampler":10,
		"source":10
	},
	{
		"sampler":11,
		"source":11
	},
	{
		"sampler":12,
		"source":12
	},
	{
		"sampler":13,
		"source":13
	},
	{
		"sampler":14,
		"source":14
	},
	{
		"sampler":15,
		"source":15
	}],
	"materials":[{
		"pbrMetallicRoughness":{
			"baseColorTexture":{
				"index":0
			},
			"baseColorFactor":[1,
			1,
			1,
			1],
			"metallicFactor":0,
			"roughnessFactor":0.5
		},
		"emissiveFactor":[0,
		0,
		0],
		"alphaMode":"OPAQUE",
		"doubleSided":false,
		"name":"Cube"
	},
	{
		"pbrMetallicRoughness":{
			"baseColorTexture":{
				"index":1
			},
			"baseColorFactor":[1,
			1,
			1,
			1],
			"metallicFactor":0,
			"roughnessFactor":0.5
		},
		"emissiveFactor":[0,
		0,
		0],
		"alphaMode":"OPAQUE",
		"doubleSided":false,
		"name":"Cylinder"
	},
	{
		"pbrMetallicRoughness":{
			"baseColorTexture":{
				"index":2
			},
			"baseColorFactor":[1,
			1,
			1,
			1],
			"metallicFactor":0,
			"roughnessFactor":0.5
		},
		"emissiveFactor":[0,
		0,
		0],
		"alphaMode":"OPAQUE",
		"doubleSided":false,
		"name":"Cylinder.1"
	},
	{
		"pbrMetallicRoughness":{
			"baseColorTexture":{
				"index":3
			},
			"baseColorFactor":[1,
			1,
			1,
			1],
			"metallicFactor":0,
			"roughnessFactor":0.5
		},
		"emissiveFactor":[0,
		0,
		0],
		"alphaMode":"OPAQUE",
		"doubleSided":false,
		"name":"Cube.1"
	},
	{
		"pbrMetallicRoughness":{
			"baseColorTexture":{
				"index":4
			},
			"baseColorFactor":[1,
			1,
			1,
			1],
			"metallicFactor":0,
			"roughnessFactor":0.5
		},
		"emissiveFactor":[0,
		0,
		0],
		"alphaMode":"OPAQUE",
		"doubleSided":false,
		"name":"Cube.2"
	},
	{
		"pbrMetallicRoughness":{
			"baseColorTexture":{
				"index":5
			},
			"baseColorFactor":[1,
			1,
			1,
			1],
			"metallicFactor":0,
			"roughnessFactor":0.5
		},
		"emissiveFactor":[0,
		0,
		0],
		"alphaMode":"OPAQUE",
		"doubleSided":false,
		"name":"Cube.3"
	},
	{
		"pbrMetallicRoughness":{
			"baseColorTexture":{
				"index":6
			},
			"baseColorFactor":[1,
			1,
			1,
			1],
			"metallicFactor":0,
			"roughnessFactor":0.5
		},
		"emissiveFactor":[0,
		0,
		0],
		"alphaMode":"OPAQUE",
		"doubleSided":false,
		"name":"Cube.4"
	},
	{
		"pbrMetallicRoughness":{
			"baseColorTexture":{
				"index":7
			},
			"baseColorFactor":[1,
			1,
			1,
			1],
			"metallicFactor":0,
			"roughnessFactor":0.5
		},
		"emissiveFactor":[0,
		0,
		0],
		"alphaMode":"OPAQUE",
		"doubleSided":false,
		"name":"Cube.5"
	},
	{
		"pbrMetallicRoughness":{
			"baseColorTexture":{
				"index":8
			},
			"baseColorFactor":[1,
			1,
			1,
			1],
			"metallicFactor":0,
			"roughnessFactor":0.5
		},
		"emissiveFactor":[0,
		0,
		0],
		"alphaMode":"OPAQUE",
		"doubleSided":false,
		"name":"Cube.6"
	},
	{
		"pbrMetallicRoughness":{
			"baseColorTexture":{
				"index":9
			},
			"baseColorFactor":[1,
			1,
			1,
			1],
			"metallicFactor":0,
			"roughnessFactor":0.5
		},
		"emissiveFactor":[0,
		0,
		0],
		"alphaMode":"OPAQUE",
		"doubleSided":false,
		"name":"Cube.7"
	},
	{
		"pbrMetallicRoughness":{
			"baseColorTexture":{
				"index":10
			},
			"baseColorFactor":[1,
			1,
			1,
			1],
			"metallicFactor":0,
			"roughnessFactor":0.5
		},
		"emissiveFactor":[0,
		0,
		0],
		"alphaMode":"OPAQUE",
		"doubleSided":false,
		"name":"Cube.8"
	},
	{
		"pbrMetallicRoughness":{
			"baseColorTexture":{
				"index":11
			},
			"baseColorFactor":[1,
			1,
			1,
			1],
			"metallicFactor":0,
			"roughnessFactor":0.5
		},
		"emissiveFactor":[0,
		0,
		0],
		"alphaMode":"OPAQUE",
		"doubleSided":false,
		"name":"Cube.9"
	},
	{
		"pbrMetallicRoughness":{
			"baseColorTexture":{
				"index":12
			},
			"baseColorFactor":[1,
			1,
			1,
			1],
			"metallicFactor":0,
			"roughnessFactor":0.5
		},
		"emissiveFactor":[0,
		0,
		0],
		"alphaMode":"OPAQUE",
		"doubleSided":false,
		"name":"Cube.10"
	},
	{
		"pbrMetallicRoughness":{
			"baseColorTexture":{
				"index":13
			},
			"baseColorFactor":[1,
			1,
			1,
			1],
			"metallicFactor":0,
			"roughnessFactor":0.5
		},
		"emissiveFactor":[0,
		0,
		0],
		"alphaMode":"OPAQUE",
		"doubleSided":false,
		"name":"Cube.11"
	},
	{
		"pbrMetallicRoughness":{
			"baseColorTexture":{
				"index":14
			},
			"baseColorFactor":[1,
			1,
			1,
			1],
			"metallicFactor":0,
			"roughnessFactor":0.5
		},
		"emissiveFactor":[0,
		0,
		0],
		"alphaMode":"OPAQUE",
		"doubleSided":false,
		"name":"Cube.12"
	},
	{
		"pbrMetallicRoughness":{
			"baseColorTexture":{
				"index":15
			},
			"baseColorFactor":[1,
			1,
			1,
			1],
			"metallicFactor":0,
			"roughnessFactor":0.5
		},
		"emissiveFactor":[0,
		0,
		0],
		"alphaMode":"OPAQUE",
		"doubleSided":false,
		"name":"Cube.13"
	}]
}